<svg
  class="waves"
  xmlns="http://www.w3.org/2000/svg"
  xmlns:xlink="http://www.w3.org/1999/xlink"
  viewBox="0 24 150 28"
  preserveAspectRatio="none"
  shape-rendering="auto"
>
<g transform="translate(0.000000,96.000000) scale(0.100000,-0.100000)"
fill="#3b6746" stroke="none">
<path d="M49 861 l-29 -29 0 -345 0 -345 26 -31 c30 -36 40 -38 73 -10 l25 20
-1 364 0 365 -24 20 c-32 26 -35 25 -70 -9z"/>
<path d="M332 870 c-35 -22 -56 -55 -46 -73 27 -48 47 -57 120 -57 70 0 73 -1
103 -35 26 -30 31 -44 31 -86 0 -43 -5 -55 -34 -84 -31 -33 -36 -35 -104 -35
-66 0 -72 -2 -96 -31 -14 -17 -26 -34 -26 -38 0 -14 341 -351 355 -351 20 0
75 58 75 79 0 20 -110 132 -160 164 -54 34 -47 97 11 97 38 0 119 136 119 199
0 93 -94 213 -190 243 -87 27 -124 29 -158 8z"/>
<path d="M978 865 c-50 -43 -40 -69 65 -173 51 -50 101 -92 110 -92 24 0 77
53 77 78 0 20 -193 212 -214 212 -6 0 -23 -12 -38 -25z"/>
<path d="M1473 697 l-194 -194 -1 -184 0 -183 31 -28 c40 -36 53 -35 86 4 l27
31 -3 156 -3 156 158 155 c87 85 161 157 165 160 5 3 11 15 15 28 6 18 0 30
-27 57 -19 19 -40 35 -47 35 -7 0 -100 -87 -207 -193z"/>
<path d="M2298 867 c-21 -17 -28 -32 -28 -59 0 -20 4 -39 9 -42 4 -3 34 -49
65 -103 31 -54 61 -105 66 -113 6 -8 21 -35 35 -60 14 -25 30 -52 35 -60 5 -8
46 -76 89 -150 44 -74 92 -150 109 -169 l29 -34 36 22 c20 12 39 30 42 40 7
23 -8 63 -39 104 -34 46 -266 435 -313 527 -30 57 -80 120 -96 120 -7 -1 -24
-11 -39 -23z"/>
<path d="M3079 872 c-32 -21 -48 -43 -49 -64 0 -14 79 -95 245 -251 22 -21
139 -137 261 -258 121 -120 228 -219 236 -219 22 0 68 57 68 83 0 14 -28 48
-77 96 -43 40 -199 194 -348 341 -148 147 -279 272 -291 278 -16 9 -26 7 -45
-6z"/>
<path d="M3732 863 l-27 -28 1 -155 c1 -86 4 -166 8 -178 8 -23 39 -36 77 -30
41 5 48 39 46 209 -2 152 -3 158 -26 183 -31 33 -46 33 -79 -1z"/>
<path d="M4611 864 l-31 -26 0 -353 0 -353 31 -26 c38 -32 40 -32 78 0 l31 26
0 353 0 353 -31 26 c-17 14 -34 26 -39 26 -5 0 -22 -12 -39 -26z"/>
<path d="M4910 883 c-30 -11 -60 -47 -60 -73 0 -43 38 -70 99 -70 65 0 114
-24 168 -83 59 -64 66 -82 66 -172 0 -91 -7 -108 -66 -172 -55 -59 -103 -83
-170 -83 -43 0 -58 -5 -75 -23 -31 -33 -28 -70 9 -101 36 -31 39 -31 104 -10
190 60 287 156 328 324 15 61 15 70 -2 135 -10 39 -27 88 -39 110 -37 72 -161
175 -229 191 -15 3 -47 12 -71 20 -23 8 -44 14 -45 13 -1 0 -9 -3 -17 -6z"/>
<path d="M5887 862 c-15 -15 -27 -39 -27 -51 0 -13 24 -63 54 -110 131 -211
196 -319 196 -327 0 -4 6 -15 14 -23 12 -14 29 -45 95 -166 28 -52 72 -105 88
-105 8 0 30 15 49 34 35 35 36 52 9 86 -18 23 -115 187 -115 195 0 3 -11 21
-24 38 -14 18 -30 43 -36 57 -6 14 -25 49 -43 77 -69 113 -142 239 -150 258
-9 24 -55 65 -72 65 -6 0 -23 -13 -38 -28z"/>
<path d="M6662 859 c-35 -34 -37 -44 -19 -75 16 -27 393 -396 420 -410 14 -8
29 -9 47 -2 27 10 392 364 424 411 23 34 13 64 -31 89 -27 16 -31 16 -54 0
-13 -9 -94 -89 -179 -177 -85 -88 -161 -164 -167 -168 -16 -10 -47 7 -67 35
-27 38 -319 328 -331 328 -6 0 -26 -14 -43 -31z"/>
<path d="M7875 867 l-27 -23 0 -357 c0 -273 3 -361 13 -373 21 -26 47 -36 67
-25 48 28 46 7 48 395 l2 365 -32 21 c-41 25 -39 25 -71 -3z"/>
<path d="M8177 881 c-30 -9 -57 -46 -57 -77 0 -56 26 -64 205 -64 167 0 190 5
206 47 26 69 -22 92 -204 95 -75 2 -143 1 -150 -1z"/>
<path d="M8848 873 c-30 -19 -52 -59 -41 -76 15 -24 706 -702 724 -711 16 -7
27 -2 54 24 54 52 51 58 -80 179 -44 41 -200 193 -346 338 -146 144 -270 263
-275 263 -5 0 -21 -8 -36 -17z"/>
<path d="M9501 864 l-31 -26 0 -162 c0 -157 1 -163 23 -184 32 -30 68 -28 100
6 27 28 27 29 27 175 l0 146 -32 36 c-18 19 -38 35 -45 35 -6 0 -25 -12 -42
-26z"/>
<path d="M5730 589 c-17 -17 -37 -45 -45 -63 -8 -17 -28 -53 -45 -81 -16 -27
-34 -59 -39 -70 -5 -11 -30 -51 -56 -89 -74 -111 -79 -123 -61 -152 9 -13 27
-31 41 -40 22 -14 26 -14 54 7 17 12 39 44 51 74 12 29 31 62 43 74 21 19 28
20 117 10 107 -11 126 -8 158 21 33 31 28 64 -14 96 -34 26 -38 27 -77 15 -62
-19 -101 -19 -105 0 -2 14 34 70 73 110 32 33 15 78 -42 108 -19 9 -26 7 -53
-20z"/>
<path d="M2143 598 c-12 -6 -29 -25 -37 -42 -8 -17 -26 -48 -40 -69 -14 -21
-26 -40 -26 -44 0 -8 -130 -225 -147 -244 -7 -8 -13 -26 -13 -38 0 -24 53 -81
76 -81 17 0 54 50 88 117 14 29 34 57 44 62 12 7 50 7 108 1 123 -13 122 -13
155 19 37 37 36 52 -2 90 -35 36 -48 37 -118 15 -41 -14 -53 -14 -66 -4 -8 7
-15 16 -15 20 0 5 23 35 50 68 28 33 50 67 50 76 0 21 -48 66 -69 65 -9 0 -26
-5 -38 -11z"/>
<path d="M8139 534 c-27 -28 -25 -78 4 -101 20 -16 37 -17 136 -13 110 5 113
6 136 34 l24 30 -20 28 c-24 34 -36 37 -162 40 -88 3 -100 1 -118 -18z"/>
<path d="M3051 471 c-19 -26 -21 -44 -21 -176 l0 -147 34 -34 c19 -19 39 -34
46 -34 6 0 25 13 41 29 l29 29 0 159 c0 154 -1 160 -23 181 -34 32 -81 29
-106 -7z"/>
<path d="M6664 492 c-21 -14 -27 -58 -26 -197 0 -77 1 -145 1 -152 1 -13 51
-63 64 -63 4 0 21 10 37 22 l30 22 0 166 c0 188 -7 210 -63 210 -18 0 -37 -4
-43 -8z"/>
<path d="M7425 480 c-16 -18 -19 -41 -20 -173 -1 -83 2 -162 6 -174 5 -12 19
-29 33 -38 24 -16 27 -16 61 5 l35 22 0 172 c0 155 -2 175 -18 189 -26 23 -75
21 -97 -3z"/>
<path d="M8826 478 c-13 -18 -16 -54 -16 -184 l0 -162 31 -26 c38 -32 40 -32
78 0 l31 26 0 162 c0 149 -2 164 -20 184 -28 30 -83 30 -104 0z"/>
<path d="M8143 213 c-32 -22 -31 -72 2 -103 23 -22 30 -23 175 -22 148 1 173
6 205 38 21 21 12 60 -18 85 -19 16 -41 18 -182 18 -129 0 -164 -3 -182 -16z"/>
</g>
</svg>
